<?xml version="1.0" ?><svg style="enable-background:new 0 0 512 512;" version="1.1" viewBox="0 0 512 512" xml:space="preserve" xmlns="http://www.w3.org/2000/svg" xmlns:xlink="http://www.w3.org/1999/xlink"><style type="text/css">
	.st0{display:none;}
	.st1{fill:#474747;}
</style><g class="st0" id="Layer_1"/><g id="Layer_2"><g><path class="st1" d="M348.62,86.67c-0.38-0.25-0.79-0.47-1.21-0.64c-0.42-0.18-0.87-0.31-1.31-0.4c-0.91-0.18-1.83-0.18-2.74,0    c-0.44,0.09-0.88,0.22-1.31,0.4c-0.42,0.17-0.83,0.39-1.2,0.64c-0.39,0.26-0.75,0.55-1.07,0.87c-1.3,1.3-2.05,3.11-2.05,4.95    c0,0.46,0.05,0.92,0.14,1.37c0.09,0.45,0.22,0.89,0.4,1.31c0.17,0.42,0.39,0.83,0.64,1.21c0.26,0.38,0.55,0.74,0.87,1.06    c1.3,1.3,3.11,2.05,4.95,2.05c0.46,0,0.92-0.04,1.37-0.14c0.44-0.09,0.89-0.22,1.31-0.39c0.42-0.18,0.83-0.4,1.21-0.65    c0.38-0.25,0.74-0.55,1.06-0.87c0.32-0.32,0.62-0.68,0.87-1.06s0.47-0.79,0.64-1.21c0.18-0.42,0.31-0.86,0.4-1.31    s0.14-0.91,0.14-1.37c0-1.84-0.75-3.65-2.05-4.95C349.36,87.22,349,86.93,348.62,86.67z"/><path class="st1" d="M163.74,424.86c0.38,0.26,0.78,0.47,1.21,0.65c0.42,0.17,0.86,0.31,1.31,0.4c0.45,0.09,0.91,0.13,1.36,0.13    c1.84,0,3.65-0.74,4.95-2.05c1.3-1.3,2.05-3.1,2.05-4.95c0-0.45-0.04-0.91-0.13-1.36c-0.09-0.45-0.23-0.89-0.4-1.31    c-0.18-0.43-0.4-0.83-0.65-1.21c-0.25-0.39-0.55-0.74-0.87-1.07c-0.32-0.32-0.68-0.61-1.06-0.87c-0.38-0.25-0.79-0.47-1.21-0.64    c-0.42-0.18-0.86-0.31-1.31-0.4c-0.9-0.18-1.83-0.18-2.73,0c-0.45,0.09-0.89,0.22-1.31,0.4c-0.43,0.17-0.83,0.39-1.21,0.64    c-0.39,0.26-0.74,0.55-1.07,0.87c-0.32,0.33-0.61,0.68-0.87,1.07c-0.25,0.38-0.47,0.78-0.64,1.21c-0.18,0.42-0.31,0.86-0.4,1.31    c-0.09,0.45-0.14,0.91-0.14,1.36c0,1.85,0.75,3.65,2.05,4.95C163,424.32,163.35,424.61,163.74,424.86z"/><path class="st1" d="M230.86,294.83l-0.44-0.51c-5.7-6.67-8.97-16.17-8.97-26.06v-24.51c0-9.89,3.27-19.39,8.96-26.05l0.44-0.51    c5.76-6.74,7.02-16.93,3.14-25.34c-0.74-1.6-1.63-3.04-2.64-4.34c1.01-1.29,1.9-2.74,2.64-4.34c3.88-8.42,2.62-18.6-3.15-25.34    l-0.43-0.5c-5.7-6.67-8.97-16.17-8.97-26.06l0-80.76c0-1.86-0.74-3.64-2.05-4.95c-1.31-1.31-3.09-2.05-4.95-2.05h-46.83    c-3.87,0-7,3.13-7,7v68.09l-27.2-27.2c0.59-12.87-4.19-25.31-13.37-34.49c-9.82-9.81-23.38-14.61-37.19-13.16    c-3.29,0.35-5.89,2.94-6.23,6.23c-1.45,13.83,3.35,27.39,13.16,37.2c1.08,1.08,2.23,2.09,3.42,3.06c-1.34,0.73-2.66,1.5-3.93,2.37    c-11.49,7.79-18.76,20.2-19.94,34.05c-0.28,3.3,1.78,6.34,4.95,7.3c4.39,1.33,8.89,1.98,13.35,1.98c9.05,0,17.97-2.69,25.66-7.91    c2.24-1.52,4.35-3.24,6.28-5.11c2.77-2.7,2.83-7.13,0.13-9.9c-2.7-2.77-7.13-2.83-9.9-0.13c-1.34,1.3-2.81,2.5-4.37,3.56    c-6.25,4.24-13.67,6.08-21.04,5.33c2.03-7.12,6.48-13.33,12.73-17.57c4.4-2.98,9.27-4.77,14.5-5.31    c3.36-0.36,6.72-0.17,10.02,0.54l38.47,38.47c-1.11,7.42-4.06,14.27-8.46,19.42l-0.44,0.51c-5.76,6.74-7.02,16.93-3.14,25.34    c0.74,1.6,1.63,3.04,2.64,4.34c-1.01,1.29-1.9,2.74-2.64,4.33c-3.88,8.42-2.62,18.6,3.15,25.34l0.43,0.5    c5.7,6.67,8.97,16.17,8.97,26.06v24.51c0,2.24-0.18,4.46-0.5,6.64l-13.09-13.09c0.59-12.86-4.19-25.3-13.36-34.49    c-9.82-9.82-23.38-14.61-37.2-13.16c-3.29,0.35-5.89,2.94-6.23,6.23c-1.45,13.83,3.35,27.38,13.16,37.2    c1.08,1.08,2.23,2.1,3.42,3.06c-1.34,0.73-2.66,1.5-3.93,2.36c-11.5,7.8-18.77,20.21-19.94,34.06c-0.28,3.29,1.79,6.33,4.95,7.29    c4.39,1.33,8.88,1.98,13.34,1.98c9.05,0,17.97-2.69,25.66-7.91c7.52-5.1,13.22-12.19,16.6-20.36l11.51,11.51    c-1,1.69-2.12,3.28-3.36,4.73l-0.43,0.5c-5.76,6.74-7.02,16.93-3.14,25.34c0.74,1.6,1.63,3.04,2.64,4.34    c-1.01,1.29-1.9,2.74-2.64,4.33c-3.88,8.42-2.62,18.6,3.15,25.34l0.43,0.5c5.7,6.67,8.97,16.17,8.97,26.06v15.43    c0,3.87,3.13,7,7,7s7-3.13,7-7v-15.43c0-13.18-4.49-25.99-12.33-35.16l-0.42-0.49c-2.62-3.06-2.39-7.53-1.07-10.39    c0.44-0.96,1.7-3.2,3.8-3.2h52.88c2.1,0,3.36,2.23,3.81,3.2c1.32,2.86,1.54,7.33-1.07,10.39l-0.43,0.5    c-7.83,9.17-12.32,21.98-12.32,35.16l0,73.76h-32.83v-14.73c0-3.87-3.13-7-7-7s-7,3.13-7,7v21.73c0,3.87,3.13,7,7,7h46.83    c1.86,0,3.64-0.74,4.95-2.05c1.31-1.31,2.05-3.09,2.05-4.95l0-80.76c0-9.89,3.27-19.39,8.97-26.06l0.43-0.5    c5.76-6.74,7.02-16.93,3.14-25.34c-0.74-1.6-1.63-3.04-2.64-4.34c1.01-1.29,1.9-2.74,2.64-4.34    C237.88,311.75,236.62,301.57,230.86,294.83z M123.77,237.22c5.34,5.35,8.54,12.29,9.19,19.66c-0.03,0-0.06,0-0.1-0.01    c-0.29-0.03-0.57-0.06-0.85-0.1c-0.25-0.03-0.5-0.05-0.75-0.09c-0.29-0.04-0.58-0.1-0.86-0.14c-0.24-0.04-0.48-0.08-0.73-0.12    c-0.32-0.06-0.63-0.14-0.95-0.21c-0.21-0.05-0.42-0.09-0.63-0.14c-0.49-0.12-0.97-0.26-1.45-0.4c-0.04-0.01-0.08-0.02-0.11-0.03    c-4.96-1.5-9.54-4.25-13.23-7.94c-5.34-5.34-8.54-12.29-9.19-19.66C111.48,228.68,118.43,231.88,123.77,237.22z M119.05,286.85    c-6.25,4.24-13.67,6.08-21.04,5.33c2.02-7.12,6.48-13.33,12.74-17.57c3.97-2.7,8.51-4.46,13.2-5.15c0.02,0.01,0.05,0.01,0.07,0.02    c0.58,0.15,1.16,0.3,1.74,0.43c0.07,0.02,0.14,0.03,0.21,0.04c0.51,0.11,1.03,0.22,1.54,0.31c0.2,0.04,0.41,0.07,0.61,0.1    c0.38,0.06,0.76,0.13,1.15,0.18c0.23,0.03,0.47,0.06,0.7,0.09c0.36,0.05,0.71,0.09,1.07,0.13c0.09,0.01,0.18,0.02,0.27,0.03    C129.11,277.28,124.86,282.91,119.05,286.85z M110.16,66.81c4.96,4.96,8.07,11.3,9.01,18.08c-0.7-0.06-1.4-0.11-2.1-0.14    c-0.22-0.01-0.44-0.01-0.67-0.02c-0.47-0.01-0.93-0.03-1.4-0.03c-0.04,0-0.09,0-0.13,0c-0.17,0-0.34,0.01-0.51,0.01    c-0.52,0.01-1.04,0.02-1.56,0.05c-0.21,0.01-0.43,0.02-0.64,0.03c-0.15,0.01-0.31,0.01-0.46,0.03c-4.49-1.57-8.62-4.16-12-7.54    c-5.34-5.34-8.54-12.28-9.19-19.66C97.88,58.27,104.81,61.47,110.16,66.81z M161.87,166.92l0.43-0.5    c7.83-9.17,12.32-21.98,12.32-35.16V57.5h32.83l0,73.76c0,13.18,4.49,25.99,12.32,35.16l0.43,0.5c2.62,3.06,2.39,7.53,1.07,10.39    c-0.44,0.96-1.7,3.2-3.81,3.2H164.6c-2.1,0-3.36-2.23-3.8-3.2C159.48,174.45,159.25,169.98,161.87,166.92z M164.6,317.5    c-2.1,0-3.36-2.23-3.8-3.2c-1.32-2.86-1.54-7.32,1.07-10.39l0.43-0.5c7.83-9.17,12.32-21.98,12.32-35.16v-24.51    c0-13.18-4.49-25.99-12.32-35.16l-0.43-0.5c-2.62-3.06-2.39-7.53-1.07-10.39c0.44-0.96,1.7-3.2,3.8-3.2h52.88    c2.1,0,3.36,2.23,3.81,3.2c1.32,2.86,1.54,7.33-1.07,10.39l-0.43,0.5c-7.83,9.17-12.32,21.98-12.32,35.16v24.51    c0,13.18,4.49,25.99,12.32,35.16c0,0,0,0,0,0l0.43,0.5c2.62,3.06,2.39,7.53,1.07,10.39c-0.44,0.96-1.7,3.2-3.81,3.2H164.6z"/><path class="st1" d="M406.55,251.52c-2.23-1.51-4.25-3.29-6.01-5.29c-2.56-2.9-6.98-3.17-9.88-0.62c-2.9,2.56-3.17,6.98-0.62,9.88    c2.54,2.88,5.45,5.44,8.65,7.61c7.7,5.22,16.62,7.91,25.67,7.91c4.46,0,8.95-0.65,13.35-1.98c3.17-0.96,5.23-4,4.95-7.3    c-1.18-13.84-8.45-26.26-19.94-34.06c-1.27-0.86-2.58-1.63-3.92-2.35c1.18-0.97,2.33-1.98,3.41-3.06    c9.82-9.82,14.61-23.38,13.16-37.2c-0.35-3.29-2.94-5.89-6.23-6.23c-13.82-1.45-27.37,3.35-37.19,13.16    c-9.17,9.17-13.96,21.61-13.36,34.48l-26.85,26.85v-9.57c0-9.89,3.27-19.39,8.97-26.06l0.43-0.5c5.76-6.74,7.02-16.93,3.14-25.34    c-0.74-1.6-1.63-3.04-2.64-4.34c1.01-1.29,1.9-2.74,2.64-4.34c3.88-8.42,2.62-18.6-3.15-25.34l-0.43-0.5    c-5.7-6.67-8.97-16.17-8.97-26.06v-16.15c0-3.87-3.13-7-7-7s-7,3.13-7,7v16.15c0,13.18,4.49,25.99,12.32,35.16l0.43,0.5    c2.62,3.06,2.39,7.53,1.07,10.39c-0.44,0.96-1.7,3.2-3.81,3.2h-52.88c-2.1,0-3.36-2.23-3.8-3.2c-1.32-2.86-1.54-7.32,1.07-10.39    l0.43-0.5c7.83-9.17,12.32-21.98,12.32-35.16V57.5h32.83v12.52c0,3.87,3.13,7,7,7s7-3.13,7-7V50.5c0-3.87-3.13-7-7-7H297.9    c-3.87,0-7,3.13-7,7v80.76c0,9.89-3.27,19.39-8.97,26.06l-0.43,0.5c-5.76,6.74-7.02,16.93-3.14,25.34    c0.74,1.6,1.63,3.04,2.64,4.33c-1.01,1.29-1.9,2.74-2.64,4.34c-3.88,8.42-2.62,18.6,3.14,25.34l0.43,0.5    c5.7,6.67,8.97,16.17,8.97,26.06v24.51c0,9.89-3.27,19.39-8.97,26.06l-0.43,0.5c-5.76,6.74-7.02,16.93-3.14,25.34    c0.74,1.6,1.63,3.04,2.64,4.34c-1.01,1.29-1.9,2.74-2.64,4.33c-3.88,8.42-2.62,18.6,3.14,25.34l0.43,0.5    c5.7,6.67,8.97,16.17,8.97,26.06v80.76c0,3.87,3.13,7,7,7h46.83c3.87,0,7-3.13,7-7v-80.76c0-9.89,3.27-19.39,8.97-26.06l0.43-0.5    c5.76-6.74,7.02-16.93,3.14-25.34c-0.74-1.6-1.63-3.04-2.64-4.33c1.01-1.29,1.9-2.74,2.64-4.34c3.88-8.42,2.62-18.6-3.14-25.33    l-0.43-0.5c0,0,0-0.01-0.01-0.01c-4.81-5.62-7.87-13.26-8.72-21.45l37.2-37.2c0.13,0,0.26,0,0.39,0c0.09,0,0.18,0.01,0.28,0.01    c0.35,0,0.71-0.01,1.06-0.02c0.17,0,0.34,0,0.51-0.01c0.63-0.02,1.26-0.06,1.89-0.1c0.16-0.01,0.32-0.03,0.48-0.04    c0.48-0.04,0.95-0.09,1.43-0.15c0.22-0.03,0.44-0.06,0.67-0.09c0.43-0.06,0.85-0.12,1.28-0.19c0.22-0.04,0.44-0.07,0.66-0.11    c0.47-0.08,0.93-0.18,1.4-0.27c0.16-0.03,0.33-0.07,0.49-0.1c0.63-0.14,1.25-0.29,1.87-0.45c0.02-0.01,0.05-0.01,0.07-0.02    c4.74,0.69,9.18,2.41,13.21,5.14c6.25,4.25,10.71,10.46,12.73,17.58C420.23,257.6,412.8,255.76,406.55,251.52z M421.49,192.7    c-0.65,7.38-3.85,14.32-9.19,19.66c-3.69,3.69-8.27,6.44-13.23,7.94c-0.52,0.16-1.05,0.3-1.57,0.43c-0.15,0.04-0.3,0.07-0.45,0.1    c-0.38,0.09-0.75,0.18-1.13,0.25c-0.2,0.04-0.4,0.07-0.6,0.1c-0.33,0.06-0.66,0.12-0.99,0.17c-0.22,0.03-0.44,0.05-0.66,0.08    c-0.31,0.04-0.62,0.08-0.93,0.11c-0.03,0-0.06,0-0.09,0.01c0.65-7.38,3.85-14.31,9.19-19.66    C407.18,196.55,414.12,193.35,421.49,192.7z M350.49,345.08l-0.43,0.5c-7.83,9.17-12.32,21.98-12.32,35.16v73.76H304.9v-73.76    c0-13.18-4.49-25.99-12.32-35.16l-0.43-0.5c-2.62-3.06-2.39-7.53-1.07-10.39c0.44-0.96,1.7-3.2,3.8-3.2h52.88    c2.1,0,3.36,2.23,3.81,3.2C352.88,337.55,353.1,342.02,350.49,345.08z M351.56,314.31c-0.44,0.96-1.7,3.2-3.81,3.2h-52.88    c-2.1,0-3.36-2.23-3.81-3.2c-1.32-2.86-1.54-7.32,1.07-10.39l0.43-0.5c7.83-9.17,12.32-21.98,12.32-35.16v-24.51    c0-13.18-4.49-25.99-12.32-35.16l-0.43-0.5c-2.62-3.06-2.39-7.53-1.07-10.39c0.44-0.96,1.7-3.2,3.81-3.2h52.88    c2.1,0,3.36,2.23,3.81,3.2c1.32,2.86,1.54,7.33-1.07,10.39l-0.43,0.5c-7.83,9.17-12.32,21.98-12.32,35.16v24.51    c0,0.27,0.01,0.55,0.02,0.82c-0.18,1-0.14,2.03,0.12,3.01c0.78,11.8,5.11,23.04,12.18,31.32l0.44,0.51    C353.1,306.98,352.88,311.45,351.56,314.31z"/></g></g></svg>